<?xml version="1.0" standalone="no"?>
<!DOCTYPE svg PUBLIC "-//W3C//DTD SVG 20010904//EN"
 "http://www.w3.org/TR/2001/REC-SVG-20010904/DTD/svg10.dtd">
<svg version="1.0" xmlns="http://www.w3.org/2000/svg"
 width="994.000000pt" height="665.000000pt" viewBox="0 0 994.000000 665.000000"
 preserveAspectRatio="xMidYMid meet">

<g transform="translate(0.000000,665.000000) scale(0.100000,-0.100000)"
fill="#000000" stroke="none">
<path d="M0 3325 l0 -3325 4893 0 c4735 0 4893 1 4933 19 22 10 57 33 77 51
l37 32 0 3243 0 3243 -32 31 -32 31 -4938 0 -4938 0 0 -3325z m5120 1705 c425
-87 757 -410 856 -835 27 -113 27 -379 0 -485 -40 -163 -124 -332 -225 -450
-25 -30 -52 -62 -59 -71 -10 -14 10 -36 148 -159 87 -79 157 -146 155 -149 -1
-3 -113 -4 -247 -1 l-243 5 -48 40 c-50 42 -57 59 -30 69 29 12 147 93 196
136 l47 42 -87 82 c-49 45 -108 100 -131 122 l-44 40 37 39 c77 83 147 219
176 340 19 81 14 258 -10 348 -102 386 -514 623 -899 517 -130 -36 -225 -92
-327 -195 -74 -73 -99 -106 -132 -175 -62 -125 -77 -193 -77 -340 -1 -104 3
-138 23 -200 113 -364 452 -577 820 -517 l93 16 144 -132 c79 -72 144 -135
144 -140 0 -4 -21 -17 -47 -28 -235 -103 -490 -123 -733 -58 -257 68 -481 230
-631 456 -290 439 -230 1013 146 1388 117 118 235 192 421 264 132 52 393 66
564 31z m-2209 -2552 c95 -35 156 -73 219 -137 63 -65 112 -151 135 -237 19
-73 22 -213 5 -285 -14 -61 -60 -157 -97 -207 l-25 -33 56 -74 c31 -41 56 -79
56 -85 0 -17 -275 -13 -289 4 -10 11 -23 10 -84 -6 -100 -28 -239 -28 -332 0
-175 53 -308 180 -367 349 -33 98 -33 279 1 373 63 171 216 311 389 355 87 22
249 14 333 -17z m3639 -163 l0 -94 88 -3 87 -3 3 -102 3 -102 -88 -3 -88 -3
-3 -150 c-5 -226 6 -245 123 -230 l55 6 0 -100 c0 -121 -2 -123 -133 -129
-112 -6 -169 10 -218 59 -59 59 -69 107 -69 345 l0 203 -57 3 -58 3 -1 90 c-1
49 0 95 3 102 3 8 24 13 59 13 l54 0 0 95 0 95 120 0 120 0 0 -95z m-1668
-106 c110 -37 189 -106 237 -209 23 -49 26 -68 26 -165 l0 -110 -277 -5 -277
-5 20 -32 c45 -70 185 -96 302 -54 l53 18 69 -63 70 -62 -25 -27 c-61 -65
-232 -115 -347 -100 -166 21 -304 115 -365 251 -16 36 -23 74 -26 145 -6 143
24 223 115 310 126 120 276 158 425 108z m1032 -13 c64 -31 99 -69 135 -146
26 -55 26 -57 29 -347 l3 -293 -119 0 c-102 0 -121 2 -126 16 -4 9 -6 126 -6
260 1 258 -4 289 -49 314 -57 30 -162 -6 -215 -73 l-31 -39 -3 -239 -3 -240
-122 3 -122 3 0 400 0 400 123 3 122 3 0 -62 0 -62 28 28 c44 44 89 76 129 91
58 22 161 12 227 -20z m1510 -4 c80 -38 149 -105 184 -180 24 -50 27 -72 30
-174 l4 -118 -276 0 c-162 0 -276 -4 -276 -9 0 -19 55 -74 87 -87 49 -21 173
-18 235 6 l53 20 68 -68 68 -67 -33 -28 c-88 -75 -235 -109 -367 -87 -153 26
-294 132 -341 256 -41 110 -36 243 12 343 24 51 121 152 171 178 121 63 266
69 381 15z m-3774 -189 c0 -332 15 -385 111 -385 80 1 141 39 180 114 17 33
19 60 19 263 l0 226 123 -3 122 -3 0 -400 0 -400 -122 -3 -123 -3 0 67 0 66
-32 -40 c-57 -69 -122 -100 -214 -101 -142 -2 -246 77 -288 219 -13 43 -16
107 -16 327 l0 273 120 0 120 0 0 -217z"/>
<path d="M2621 2251 c-65 -23 -96 -45 -138 -100 -42 -54 -57 -107 -57 -206 0
-61 5 -91 22 -128 45 -100 117 -159 215 -176 57 -10 137 -6 137 7 0 3 -38 56
-85 119 -47 63 -88 120 -92 128 -4 13 17 15 139 15 l145 0 38 -56 c35 -50 40
-54 51 -39 34 46 30 213 -6 285 -71 142 -219 202 -369 151z"/>
<path d="M4725 2011 c-45 -11 -92 -38 -109 -63 -33 -46 -27 -48 144 -48 174 0
180 2 139 54 -37 47 -112 72 -174 57z"/>
<path d="M7205 2005 c-47 -12 -115 -68 -115 -95 0 -7 57 -10 165 -9 91 0 165
4 165 9 0 5 -12 22 -26 40 -49 57 -111 75 -189 55z"/>
</g>
</svg>
